<?xml version="1.0" ?>
<svg 
x="0px" y="0px"
width="328.051px" height="100.912px"
xml:space="preserve" xmlns:xlink="http://www.w3.org/1999/xlink" xmlns="http://www.w3.org/2000/svg" color-interpolation-filters="sRGB" id="root">
  <g transform="scale(.82)">
    <g transform="matrix(1 0 0 -1 -100 265)" id="main">
      <g>
        <g transform="translate(469.1123 186.5635)">
          <path d="M0 0C-1.652 -.488 -2.971 -.654 -4.691 -.654C-18.822 -.654 -39.578 48.727 -39.578 65.162C-39.578 71.217 -38.141 73.236 -36.121 74.963C-53.42 72.948 -74.178 66.604 -80.813 58.53C-82.252 56.51 -83.117 53.34 -83.117 49.305C-83.117 23.643 -55.727 -34.596 -36.408 -34.596C-27.473 -34.596 -12.398 -19.891 0 0" fill-rule="nonzero" stroke="none" fill="#363636"/>
        </g>
        <g transform="translate(460.0908 263.2588)">
          <path d="M0 0C17.877 0 35.756 -2.883 35.756 -12.975C35.756 -33.445 22.781 -58.242 16.148 -58.242C4.33 -58.242 -10.377 -25.374 -10.377 -8.938C-10.377 -1.443 -7.492 0 0 0" fill-rule="nonzero" stroke="none" fill="#363636"/>
        </g>
        <g transform="translate(114.7295 221.79)">
          <path d="M0 0L0 -20.887L21.891 -20.887L21.891 -32.949L0 -32.949L0 -66.121L-15.301 -66.121L-15.301 12.063L24.684 12.063L24.684 0Z" fill-rule="nonzero" stroke="none" fill="#363636"/>
        </g>
        <g transform="translate(148.8916 155.6689)">
          <path d="M0 0L0 78.184L15.302 78.184L15.302 12.957L37.975 12.957L37.975 0Z" fill-rule="nonzero" stroke="none" fill="#363636"/>
        </g>
        <g transform="translate(218.4941 222.9053)">
          <path d="M0 0C-7.931 0 -10.61 -4.914 -10.61 -27.809C-10.61 -50.371 -7.931 -56.29 0 -56.29C7.93 -56.29 10.61 -50.371 10.61 -27.809C10.61 -4.914 7.93 0 0 0M0 -68.353C-22.114 -68.353 -26.135 -54.615 -26.135 -27.25C-26.135 -1.004 -21.444 12.063 0 12.063C21.444 12.063 26.136 -1.004 26.136 -27.25C26.136 -54.615 22.114 -68.353 0 -68.353" fill-rule="nonzero" stroke="none" fill="#363636"/>
        </g>
        <g transform="translate(309.1934 155.6689)">
          <path d="M0 0L-21.556 0L-26.247 26.248L-31.831 0L-52.493 0L-56.291 78.184L-42.665 78.184L-39.649 11.951L-31.72 45.234L-18.987 45.234L-11.951 11.951L-8.823 78.184L3.798 78.184Z" fill-rule="nonzero" stroke="none" fill="#363636"/>
        </g>
        <g transform="translate(337.7256 154.665)">
          <path d="M0 0C-5.473 0 -14.742 1.675 -15.748 1.898L-15.748 14.295C-13.066 13.737 -6.701 12.396 -1.787 12.396C3.574 12.396 7.037 16.194 7.037 23.119C7.037 31.83 4.803 35.516 -2.01 35.516L-10.61 35.516L-10.61 47.689L-3.127 47.689C3.24 47.689 5.808 51.6 5.808 58.301C5.808 64.667 3.574 67.795 -2.01 67.795C-6.924 67.795 -11.95 66.566 -15.189 65.896L-15.189 78.293C-13.961 78.517 -6.254 80.191 -.559 80.191C13.738 80.191 20.662 75.055 20.662 57.966C20.662 51.264 18.429 44.34 12.286 42.218C18.429 40.99 22.003 35.293 22.003 24.236C22.003 5.473 12.397 0 0 0" fill-rule="nonzero" stroke="none" fill="#363636"/>
        </g>
      </g>
    </g>
  </g>
</svg>
